<?xml version="1.0" encoding="UTF-8"?>
<svg version="1.1" xmlns="http://www.w3.org/2000/svg" width="500" height="500">
<path d="M0 0 C22.33253651 -0.50020174 41.52111277 6.45862148 57.85546875 21.7265625 C64.07066409 27.87158628 68.90901261 33.47651426 73.27734375 41.12109375 C73.60734375 28.58109375 73.93734375 16.04109375 74.27734375 3.12109375 C89.93760553 3.00076732 89.93760553 3.00076732 96.69921875 2.97460938 C101.28298581 2.95679151 105.86657029 2.93589355 110.45019531 2.89477539 C114.15256096 2.86177692 117.85473036 2.84415715 121.5572319 2.83646202 C122.95798195 2.83099008 124.35872331 2.82030899 125.75938797 2.80390358 C142.80392321 2.61251356 159.46866634 5.3935023 172.33984375 17.43359375 C181.29173723 27.20080838 184.14839223 39.13997364 184.27734375 52.12109375 C183.25742201 67.04756753 178.85417439 78.15441181 167.90234375 88.37109375 C163.36643629 92.26339272 158.47888941 96.12109375 152.27734375 96.12109375 C157.11416569 102.26067002 162.07389232 108.27927341 167.13793945 114.23120117 C170.80247675 118.54364736 174.38915404 122.91503591 177.9609375 127.3046875 C180.55521586 130.45894501 183.19337906 133.57314733 185.83984375 136.68359375 C189.81110349 141.35234937 193.68468138 146.08419747 197.484375 150.89453125 C199.19700654 153.02132858 200.97053119 155.07421518 202.77734375 157.12109375 C205.27734375 160.12109375 205.27734375 160.12109375 205.27734375 162.12109375 C201.97734375 162.12109375 198.67734375 162.12109375 195.27734375 162.12109375 C195.02210938 161.03441406 195.02210938 161.03441406 194.76171875 159.92578125 C192.6631171 151.55370019 189.90898532 144.86124379 182.27734375 140.12109375 C175.24196101 136.62002139 168.96730856 135.01723545 161.27734375 137.12109375 C155.60004655 139.36213212 150.97078275 142.22512403 146.27734375 146.12109375 C140.18880513 139.00881855 134.41646497 131.73606717 128.83569336 124.22045898 C125.31819385 119.48936248 121.73642086 114.81594356 118.08984375 110.18359375 C117.38516968 109.28761475 117.38516968 109.28761475 116.66625977 108.37353516 C114.57277093 105.6595983 114.57277093 105.6595983 112.27734375 103.12109375 C111.94734375 122.59109375 111.61734375 142.06109375 111.27734375 162.12109375 C99.06734375 162.12109375 86.85734375 162.12109375 74.27734375 162.12109375 C73.94734375 149.91109375 73.61734375 137.70109375 73.27734375 125.12109375 C69.81234375 130.56609375 69.81234375 130.56609375 66.27734375 136.12109375 C64.1043556 138.66829007 62.03194417 140.99212909 59.65234375 143.30859375 C58.74947632 144.19502563 58.74947632 144.19502563 57.82836914 145.09936523 C40.45330632 161.65667115 19.9131995 165.80517069 -3.28515625 165.42578125 C-21.49771 164.78516526 -38.28951377 157.37633008 -51.72265625 145.12109375 C-52.6353125 144.34572266 -52.6353125 144.34572266 -53.56640625 143.5546875 C-67.23335778 131.16124736 -75.5688927 111.21717891 -76.95458984 93.08642578 C-77.85498323 74.2236103 -76.28819109 57.66946902 -66.72265625 41.12109375 C-66.16578125 41.53101563 -65.60890625 41.9409375 -65.03515625 42.36328125 C-57.05542959 47.99761528 -51.17017951 49.78733945 -41.41015625 48.67578125 C-38.04713382 47.98166906 -35.34142648 46.7658088 -32.37890625 45.05859375 C-30.72265625 44.12109375 -30.72265625 44.12109375 -27.72265625 43.12109375 C-26.60112269 41.290347 -26.60112269 41.290347 -25.72265625 39.12109375 C-25.38105469 38.44949219 -25.03945312 37.77789062 -24.6875 37.0859375 C-24.34847656 36.41691406 -24.00945312 35.74789062 -23.66015625 35.05859375 C-23.31855469 34.38699219 -22.97695312 33.71539062 -22.625 33.0234375 C-19.93597563 27.3543688 -19.73018923 21.32405551 -21.58203125 15.34765625 C-22.56975803 12.90696906 -23.6286907 10.51551634 -24.72265625 8.12109375 C-25.21765625 6.63609375 -25.21765625 6.63609375 -25.72265625 5.12109375 C-17.08402914 2.47912386 -9.03987831 0.40206058 0 0 Z M111.27734375 33.12109375 C111.27734375 46.32109375 111.27734375 59.52109375 111.27734375 73.12109375 C126.17550346 74.10393337 126.17550346 74.10393337 139.07421875 68.71484375 C143.48007532 64.26702664 144.99391126 59.29992201 145.27734375 53.12109375 C144.81086024 47.31803888 143.17743733 42.53435753 139.27734375 38.12109375 C130.27769185 32.23452898 122.36822686 33.12109375 111.27734375 33.12109375 Z M-25.36328125 47.93359375 C-36.44853597 61.81815522 -38.01849774 76.91390963 -36.72265625 94.12109375 C-35.21891962 105.4182014 -30.14646268 114.65671908 -21.47265625 121.99609375 C-11.08305043 129.35757325 -0.12264693 130.48071626 12.27734375 129.12109375 C22.10055589 127.06399756 29.44758417 122.23230397 35.02734375 113.93359375 C43.18307884 100.28484073 45.49286725 84.8970828 42.55859375 69.30078125 C39.19708502 57.83369906 33.46887433 46.54183148 22.90234375 40.24609375 C7.18221016 32.37277221 -13.33563845 34.64591218 -25.36328125 47.93359375 Z " fill="#3B81F4" transform="translate(171.72265625,131.87890625)"/>
<path d="M0 0 C82.76205752 0 82.76205752 0 98.0625 14.3125 C107.01439348 24.07971463 109.87104848 36.01887989 110 49 C108.98007826 63.92647378 104.57683064 75.03331806 93.625 85.25 C89.08909254 89.14229897 84.20154566 93 78 93 C82.83682194 99.13957627 87.79654857 105.15817966 92.8605957 111.11010742 C96.525133 115.42255361 100.11181029 119.79394216 103.68359375 124.18359375 C106.27787211 127.33785126 108.91603531 130.45205358 111.5625 133.5625 C115.53375974 138.23125562 119.40733763 142.96310372 123.20703125 147.7734375 C124.91966279 149.90023483 126.69318744 151.95312143 128.5 154 C131 157 131 157 131 159 C127.7 159 124.4 159 121 159 C120.82984375 158.27554688 120.6596875 157.55109375 120.484375 156.8046875 C118.38577335 148.43260644 115.63164157 141.74015004 108 137 C100.96461726 133.49892764 94.68996481 131.8961417 87 134 C81.3227028 136.24103837 76.693439 139.10403028 72 143 C65.91146138 135.8877248 60.13912122 128.61497342 54.55834961 121.09936523 C51.0408501 116.36826873 47.45907711 111.69484981 43.8125 107.0625 C43.34271729 106.46518066 42.87293457 105.86786133 42.38891602 105.25244141 C40.29542718 102.53850455 40.29542718 102.53850455 38 100 C37.67 119.47 37.34 138.94 37 159 C24.79 159 12.58 159 0 159 C0 106.53 0 54.06 0 0 Z M37 30 C37 43.2 37 56.4 37 70 C51.89815971 70.98283962 51.89815971 70.98283962 64.796875 65.59375 C69.20273157 61.14593289 70.71656751 56.17882826 71 50 C70.53351649 44.19694513 68.90009358 39.41326378 65 35 C56.0003481 29.11343523 48.09088311 30 37 30 Z " fill="#2DCB70" transform="translate(246,135)"/>
<path d="M0 0 C4.89913188 3.42254722 7.85279225 7.53256874 9.37890625 13.32421875 C10.33291786 19.72111762 9.00531153 24.94881966 6.75 30.9375 C8.07 31.5975 9.39 32.2575 10.75 32.9375 C10.09 34.9175 9.43 36.8975 8.75 38.9375 C7.6775 38.7725 6.605 38.6075 5.5 38.4375 C1.51498869 37.90616516 -1.41426379 37.65892126 -5.25 38.9375 C-11.96873184 39.69729197 -17.04160533 39.39681515 -22.59765625 35.36328125 C-27.09185081 31.48531195 -29.82359567 27.254529 -30.5859375 21.32421875 C-30.69248594 13.96172174 -29.70919111 8.69821867 -24.63671875 3.18359375 C-17.26744195 -3.59744809 -8.86587285 -4.95150634 0 0 Z M-18.25 9.9375 C-20.56176212 13.32808444 -21.25 15.32135088 -21.25 19.4375 C-20.01797105 23.74960132 -18.56149863 25.91395777 -15.25 28.9375 C-11.57075016 29.90588142 -11.57075016 29.90588142 -8.25 29.9375 C-8.25 29.2775 -8.25 28.6175 -8.25 27.9375 C-8.91 27.9375 -9.57 27.9375 -10.25 27.9375 C-9 25.4375 -9 25.4375 -7.25 22.9375 C-3.25 22.9375 -3.25 22.9375 -1.25 23.9375 C0.36429923 20.70890153 0.34570657 17.42756347 -0.25 13.9375 C-1.98602105 10.91241855 -4.08580137 8.51959931 -7.25 6.9375 C-11.88466801 6.52552951 -14.60466537 6.98182327 -18.25 9.9375 Z " fill="#EEC418" transform="translate(375.25,93.0625)"/>
<path d="M0 0 C5.28 0 10.56 0 16 0 C16 2.64 16 5.28 16 8 C15.01 8 14.02 8 13 8 C13 15.92 13 23.84 13 32 C13.99 32 14.98 32 16 32 C16 34.64 16 37.28 16 40 C10.72 40 5.44 40 0 40 C0 37.69 0 35.38 0 33 C1.485 32.505 1.485 32.505 3 32 C3 24.08 3 16.16 3 8 C2.01 8 1.02 8 0 8 C0 5.36 0 2.72 0 0 Z " fill="#EDC319" transform="translate(318,91)"/>
<path d="M0 0 C3.5694752 1.936867 5.69404468 4.08213404 7 8 C7.57 16.835 7.57 16.835 4 21 C-0.32104248 24.08645891 -3.78385212 24.42171722 -8.87890625 23.6484375 C-12.22577665 22.62526902 -13.91882466 20.73154263 -16 18 C-17.50186547 13.49440359 -17.71589695 9.65786663 -15.8125 5.25 C-11.55113388 -0.03997173 -6.54856555 -1.25447038 0 0 Z " fill="#010101" transform="translate(130,143)"/>
<path d="M0 0 C3.13921957 2.60488433 5.69148327 4.79630908 6.2734375 8.953125 C6.46329043 13.24672199 6.4342668 16.09582964 3.625 19.5 C-0.26166497 23.20158568 -2.56479595 23.28969396 -7.74609375 23.21484375 C-10.87351354 22.91673614 -12.61706865 22.03250027 -15 20 C-18.16955197 16.06538376 -18.53348798 12.97922113 -18 8 C-16.32375739 4.31226627 -14.42746406 2.14216504 -11 0 C-7.15130459 -1.28289847 -3.85190651 -1.11877986 0 0 Z " fill="#010101" transform="translate(346,283)"/>
<path d="M0 0 C21.12 0 42.24 0 64 0 C64 0.33 64 0.66 64 1 C43.21 1 22.42 1 1 1 C1.26343076 25.43166306 1.26343076 25.43166306 4 39 C4.13554221 41.96843982 4.20253039 44.81841555 4.13525391 47.77612305 C4.12579239 48.57752213 4.11633087 49.3789212 4.10658264 50.2046051 C4.07337733 52.80723321 4.02513972 55.40933631 3.9765625 58.01171875 C3.95034638 59.83444416 3.92508345 61.6571835 3.90072632 63.47993469 C3.83455483 68.24260302 3.75556193 73.00497281 3.67376709 77.76739502 C3.59237501 82.64103875 3.52328999 87.51485587 3.453125 92.38867188 C3.31403081 101.92598891 3.16137158 111.46303568 3 121 C1.515 121.495 1.515 121.495 0 122 C0 81.74 0 41.48 0 0 Z " fill="#3AB78E" transform="translate(246,135)"/>
<path d="M0 0 C4.2490031 3.10062388 7.18340399 6.53475297 10.3125 10.6875 C14.21581804 15.78034375 18.24246673 20.64327114 22.63671875 25.328125 C24 27 24 27 24 29 C20.7 29 17.4 29 14 29 C13.82984375 28.27554687 13.6596875 27.55109375 13.484375 26.8046875 C11.38577335 18.43260644 8.63164157 11.74015004 1 7 C-6.05013505 3.49158634 -12.29753344 1.91635403 -20 4 C-23.77585796 5.4699905 -27.39905144 7.14475844 -31 9 C-30.67 7.02 -30.34 5.04 -30 3 C-29.13375 3.04125 -28.2675 3.0825 -27.375 3.125 C-24.03320194 3.17015891 -24.03320194 3.17015891 -21.1875 2 C-14.01663014 -0.24968466 -7.12023529 1.11473675 0 3 C0 2.01 0 1.02 0 0 Z " fill="#41C079" transform="translate(353,265)"/>
<path d="M0 0 C0.33 0 0.66 0 1 0 C1.55353075 13.6332574 1.55353075 13.6332574 -2 20 C-0.68 20 0.64 20 2 20 C1.875 22.1875 1.875 22.1875 1 25 C-0.42742377 26.23277508 -1.86270078 27.46020615 -3.3671875 28.59765625 C-6.15581249 30.99267149 -7.96936551 33.95404827 -10 37 C-12 34 -12 34 -12 30 C-12.66 29.34 -13.32 28.68 -14 28 C-10.25 25 -10.25 25 -8 25 C-7.71125 24.41089844 -7.4225 23.82179687 -7.125 23.21484375 C-6.15002819 21.295368 -5.08267711 19.42335128 -4 17.5625 C-1.19998436 12.05649909 -0.7028823 6.06698406 0 0 Z " fill="#4480E3" transform="translate(152,150)"/>
<path d="M0 0 C0.33 0 0.66 0 1 0 C1.06058594 0.74765625 1.12117187 1.4953125 1.18359375 2.265625 C1.26738281 3.25046875 1.35117188 4.2353125 1.4375 5.25 C1.51871094 6.22453125 1.59992188 7.1990625 1.68359375 8.203125 C1.90963727 10.87124575 1.90963727 10.87124575 2.52734375 12.87695312 C3.06302609 15.28309654 3.02077419 17.30658069 2.87890625 19.765625 C2.83580322 20.56774414 2.7927002 21.36986328 2.74829102 22.19628906 C2.68697998 23.20401367 2.62566895 24.21173828 2.5625 25.25 C2.376875 28.4675 2.19125 31.685 2 35 C12.89 35 23.78 35 35 35 C35.33 25.43 35.66 15.86 36 6 C36.33 6 36.66 6 37 6 C37 16.23 37 26.46 37 37 C24.79 37 12.58 37 0 37 C0 24.79 0 12.58 0 0 Z " fill="#3AC07A" transform="translate(246,257)"/>
<path d="M0 0 C5.28 0 10.56 0 16 0 C16 2.64 16 5.28 16 8 C15.34 7.67 14.68 7.34 14 7 C14 5.35 14 3.7 14 2 C13.37351562 2.01160156 12.74703125 2.02320312 12.1015625 2.03515625 C11.28429687 2.04417969 10.46703125 2.05320312 9.625 2.0625 C8.81289063 2.07410156 8.00078125 2.08570312 7.1640625 2.09765625 C5 2 5 2 3 1 C3 1.66 3 2.32 3 3 C4.65 3 6.3 3 8 3 C7.01 4.485 7.01 4.485 6 6 C5.63155492 8.8086043 5.63155492 8.8086043 5.5859375 11.98046875 C5.54726563 13.14384766 5.50859375 14.30722656 5.46875 15.50585938 C5.4378125 16.72080078 5.406875 17.93574219 5.375 19.1875 C5.33632813 20.41404297 5.29765625 21.64058594 5.2578125 22.90429688 C5.16343897 25.93604656 5.07785451 28.96778841 5 32 C4.34 32 3.68 32 3 32 C3 24.08 3 16.16 3 8 C2.01 8 1.02 8 0 8 C0 5.36 0 2.72 0 0 Z " fill="#E8C333" transform="translate(318,91)"/>
<path d="M0 0 C0.33 0.99 0.66 1.98 1 3 C2.66072849 3.68132451 4.327767 4.34742127 6 5 C8.12508244 8.18762365 8.5020163 10.26512223 9 14 C10.32 13.67 11.64 13.34 13 13 C13 13.66 13 14.32 13 15 C12.34 15 11.68 15 11 15 C11.33 16.32 11.66 17.64 12 19 C10.02 19 8.04 19 6 19 C5.34 17.02 4.68 15.04 4 13 C3.34 13 2.68 13 2 13 C2 11.68 2 10.36 2 9 C1.34 9 0.68 9 0 9 C-0.87890625 2.84765625 -0.87890625 2.84765625 -1 1 C-0.67 0.67 -0.34 0.34 0 0 Z " fill="#F1C30F" transform="translate(347,110)"/>
<path d="M0 0 C0.99 0 1.98 0 3 0 C5.2265625 2.30078125 5.2265625 2.30078125 7.625 5.3125 C8.42164063 6.29863281 9.21828125 7.28476562 10.0390625 8.30078125 C12 11 12 11 13 14 C9.7 14 6.4 14 3 14 C2.49528803 12.23050388 1.99639315 10.45934777 1.5 8.6875 C1.2215625 7.70136719 0.943125 6.71523438 0.65625 5.69921875 C0 3 0 3 0 0 Z " fill="#44BB7A" transform="translate(364,280)"/>
<path d="M0 0 C0.78503906 0.07863281 1.57007813 0.15726562 2.37890625 0.23828125 C4.4375 0.6875 4.4375 0.6875 6.4375 2.6875 C3.7975 2.6875 1.1575 2.6875 -1.5625 2.6875 C-1.5625 3.6775 -1.5625 4.6675 -1.5625 5.6875 C-1.8925 6.6775 -2.2225 7.6675 -2.5625 8.6875 C-1.61375 8.48125 -0.665 8.275 0.3125 8.0625 C1.34375 7.93875 2.375 7.815 3.4375 7.6875 C4.0975 8.3475 4.7575 9.0075 5.4375 9.6875 C5.1075 10.6775 4.7775 11.6675 4.4375 12.6875 C3.4475 12.0275 2.4575 11.3675 1.4375 10.6875 C-2.1007677 10.46165313 -5.17157078 10.64413716 -8.5625 11.6875 C-8.05646008 9.51875748 -7.56266187 7.68782373 -6.5625 5.6875 C-6.2325 4.6975 -5.9025 3.7075 -5.5625 2.6875 C-6.2225 2.6875 -6.8825 2.6875 -7.5625 2.6875 C-7.5625 2.0275 -7.5625 1.3675 -7.5625 0.6875 C-4.5419408 -0.31935307 -3.09173734 -0.34126261 0 0 Z " fill="#EECB1B" transform="translate(366.5625,90.3125)"/>
<path d="M0 0 C0.33 0 0.66 0 1 0 C1.304 9.12 1.304 9.12 -1 12 C-2.33333333 12.33333333 -3.66666667 12.66666667 -5 13 C-6.20003343 14.81601365 -6.20003343 14.81601365 -7 17 C-7.66666667 18.33333333 -8.33333333 19.66666667 -9 21 C-8.34 21.33 -7.68 21.66 -7 22 C-9.92824652 22.97608217 -11.95613276 23.08226668 -15 23 C-13.700625 21.5459375 -13.700625 21.5459375 -12.375 20.0625 C-7.12963594 13.92430801 -2.89169521 7.5505375 0 0 Z " fill="#497ED6" transform="translate(212,233)"/>
<path d="M0 0 C0.66 0.33 1.32 0.66 2 1 C2.33 7.27 2.66 13.54 3 20 C2.01 20.33 1.02 20.66 0 21 C-0.33 23.31 -0.66 25.62 -1 28 C-1.74733617 25.75799148 -2.06495477 24.30157571 -1.5625 21.96875 C-0.75901691 17.7281448 -0.63336857 13.49339764 -0.4375 9.1875 C-0.37272461 7.86202148 -0.37272461 7.86202148 -0.30664062 6.50976562 C-0.20108464 4.34000377 -0.10008929 2.1700209 0 0 Z " fill="#4981DA" transform="translate(215,205)"/>
<path d="M0 0 C5.03779302 3.93484425 9.97209729 8.27384528 13 14 C12.67 14.99 12.34 15.98 12 17 C11.34 17 10.68 17 10 17 C9.896875 16.38125 9.79375 15.7625 9.6875 15.125 C9.12474627 12.63473516 9.12474627 12.63473516 6 11 C5.690625 10.154375 5.38125 9.30875 5.0625 8.4375 C4.711875 7.633125 4.36125 6.82875 4 6 C1.98491642 5.26676204 1.98491642 5.26676204 0 5 C-0.33 4.34 -0.66 3.68 -1 3 C-0.67 2.01 -0.34 1.02 0 0 Z " fill="#3EC179" transform="translate(338,145)"/>
<path d="M0 0 C2.33333333 0.33333333 4.66666667 0.66666667 7 1 C8.27875 1.165 9.5575 1.33 10.875 1.5 C14 2 14 2 15 3 C17.01311449 3.39569108 19.03597208 3.74252191 21.0625 4.0625 C22.71958984 4.32740234 22.71958984 4.32740234 24.41015625 4.59765625 C25.26480469 4.73042969 26.11945313 4.86320312 27 5 C27 5.33 27 5.66 27 6 C21.20477164 6.19512553 16.27743301 5.6135374 10.6875 4.125 C9.98560547 3.95097656 9.28371094 3.77695312 8.56054688 3.59765625 C5.25346632 2.74645344 2.86755168 1.91170112 0 0 Z " fill="#4A7ED9" transform="translate(143,291)"/>
<path d="M0 0 C0.99 0.33 1.98 0.66 3 1 C2.34 2.98 1.68 4.96 1 7 C-0.0725 6.835 -1.145 6.67 -2.25 6.5 C-6.03028752 5.91189085 -6.03028752 5.91189085 -10 6 C-10.99 5.67 -11.98 5.34 -13 5 C-12.67 4.34 -12.34 3.68 -12 3 C-7.45194365 2.82164485 -4.1205746 3.00214565 0 5 C0 3.35 0 1.7 0 0 Z " fill="#E5C53D" transform="translate(383,125)"/>
<path d="M0 0 C4.25209792 4.12324647 8.13635705 8.51282966 12 13 C11.01 13.66 10.02 14.32 9 15 C7.84545838 13.75803878 6.70167438 12.50607155 5.5625 11.25 C4.92441406 10.55390625 4.28632813 9.8578125 3.62890625 9.140625 C1.97588661 6.96831143 1.4675869 5.64428456 1 3 C0.67 2.01 0.34 1.02 0 0 Z " fill="#5EB386" transform="translate(354,266)"/>
<path d="M0 0 C2.475 0.495 2.475 0.495 5 1 C6 5.75 6 5.75 6 8 C4.68 8 3.36 8 2 8 C0.74335022 5.09399739 0 3.20395416 0 0 Z " fill="#2FCA6D" transform="translate(367,285)"/>
<path d="M0 0 C0.66 0 1.32 0 2 0 C3.36363208 1.97946592 4.69418644 3.9819245 6 6 C6.97850195 7.02104551 7.97980427 8.0206121 9 9 C10.69593516 10.97688827 12.34560763 12.98790117 14 15 C13.67 15.66 13.34 16.32 13 17 C7.78358354 12.20027953 3.59047571 7.12879737 0 1 C0 0.67 0 0.34 0 0 Z " fill="#4A7DD3" transform="translate(107,260)"/>
<path d="M0 0 C2.56506697 2.98681653 3.46054461 5.08673324 3.8125 9 C3.90144531 9.845625 3.99039062 10.69125 4.08203125 11.5625 C3.99211027 14.23443779 3.36202974 15.7281975 2 18 C1.6603981 16.12612523 1.32861309 14.25083303 1 12.375 C0.7215625 10.80878906 0.7215625 10.80878906 0.4375 9.2109375 C0.01284203 6.09425135 -0.07545206 3.14069188 0 0 Z " fill="#E7C334" transform="translate(381,100)"/>
<path d="M0 0 C2.27208206 1.1225346 4.54267645 2.24791521 6.8125 3.375 C7.45509766 3.69210938 8.09769531 4.00921875 8.75976562 4.3359375 C11.63194461 5.76458611 14.3267821 7.21785473 17 9 C10.46843612 8.96976128 6.54946948 7.53145045 1.43359375 3.47265625 C0 2 0 2 0 0 Z " fill="#487BD2" transform="translate(148,252)"/>
<path d="M0 0 C2.97 1.98 5.94 3.96 9 6 C5.23375329 7.25541557 3.62811066 6.37061958 0 5 C-0.33 5.66 -0.66 6.32 -1 7 C-1.66 7 -2.32 7 -3 7 C-1.125 1.125 -1.125 1.125 0 0 Z " fill="#4878D1" transform="translate(105,173)"/>
<path d="M0 0 C7.48291572 6.15034169 7.48291572 6.15034169 10 10 C9.67 10.66 9.34 11.32 9 12 C5.80591604 9.8706107 4.90597614 8.23187259 3 5 C2.34 4.67 1.68 4.34 1 4 C1 4.66 1 5.32 1 6 C0.34 6 -0.32 6 -1 6 C-0.67 4.02 -0.34 2.04 0 0 Z " fill="#4982D8" transform="translate(231,156)"/>
<path d="M0 0 C1.109375 1.67578125 1.109375 1.67578125 2 4 C1.390625 6.54296875 1.390625 6.54296875 0.25 9.1875 C-0.29914063 10.50814453 -0.29914063 10.50814453 -0.859375 11.85546875 C-2 14 -2 14 -4 15 C-2.07289294 4.44191344 -2.07289294 4.44191344 0 0 Z " fill="#4B7FD5" transform="translate(101,180)"/>
<path d="M0 0 C0.66 0.33 1.32 0.66 2 1 C-0.36292656 3.52588702 -1.66462511 4.88820837 -5 6 C-7.6875 5.5625 -7.6875 5.5625 -10 5 C-6.76527494 2.84351662 -3.62848922 1.38542316 0 0 Z " fill="#497BD6" transform="translate(195,256)"/>
<path d="M0 0 C3.37503669 1.1858237 5.64722731 2.27573689 8 5 C7.67 5.66 7.34 6.32 7 7 C4.0625 5.75 4.0625 5.75 1 4 C0.125 1.8125 0.125 1.8125 0 0 Z " fill="#F0C82F" transform="translate(373,93)"/>
<path d="M0 0 C0.66 0 1.32 0 2 0 C2.66 1.98 3.32 3.96 4 6 C5.65 5.67 7.3 5.34 9 5 C7.68 6.32 6.36 7.64 5 9 C3.02 6.36 1.04 3.72 -1 1 C-0.67 0.67 -0.34 0.34 0 0 Z " fill="#46BA78" transform="translate(313,269)"/>
<path d="M0 0 C0.33 0 0.66 0 1 0 C1.53122363 1.76774419 2.04964073 3.53934083 2.5625 5.3125 C2.85253906 6.29863281 3.14257812 7.28476563 3.44140625 8.30078125 C4 11 4 11 3 14 C2.67 12.68 2.34 11.36 2 10 C1.34 10 0.68 10 0 10 C0 6.7 0 3.4 0 0 Z " fill="#467CD5" transform="translate(135,226)"/>
<path d="M0 0 C0.66 0.33 1.32 0.66 2 1 C1.67 2.65 1.34 4.3 1 6 C-1.97 5.505 -1.97 5.505 -5 5 C-3.35 3.35 -1.7 1.7 0 0 Z " fill="#EAC325" transform="translate(356,92)"/>
<path d="M0 0 C0.66 1.65 1.32 3.3 2 5 C-0.97 4.01 -3.94 3.02 -7 2 C-3 0 -3 0 0 0 Z " fill="#467EE3" transform="translate(194,168)"/>
<path d="M0 0 C5.57142857 5.14285714 5.57142857 5.14285714 6 9 C4.0625 8.25 4.0625 8.25 2 7 C1.3125 5.0625 1.3125 5.0625 1 3 C0.67 2.01 0.34 1.02 0 0 Z " fill="#4EB381" transform="translate(354,266)"/>
<path d="M0 0 C1.32 0.66 2.64 1.32 4 2 C3.67 2.99 3.34 3.98 3 5 C0.525 4.01 0.525 4.01 -2 3 C-1.34 2.01 -0.68 1.02 0 0 Z " fill="#E9C22E" transform="translate(369,114)"/>
<path d="M0 0 C0.5775 0.20625 1.155 0.4125 1.75 0.625 C2.08 1.945 2.41 3.265 2.75 4.625 C-0.22 3.635 -3.19 2.645 -6.25 1.625 C-2.25 -0.375 -2.25 -0.375 0 0 Z " fill="#E0C22F" transform="translate(369.25,98.375)"/>
<path d="M0 0 C0 0.66 0 1.32 0 2 C0.66 2.33 1.32 2.66 2 3 C-0.92824652 3.97608217 -2.95613276 4.08226668 -6 4 C-2.25 0 -2.25 0 0 0 Z " fill="#4580E2" transform="translate(203,252)"/>
<path d="M0 0 C5.75 0.75 5.75 0.75 8 3 C7.01 3 6.02 3 5 3 C4.67 3.66 4.34 4.32 4 5 C4 4.34 4 3.68 4 3 C3.01 3 2.02 3 1 3 C0.67 2.01 0.34 1.02 0 0 Z " fill="#3FC474" transform="translate(322,138)"/>
</svg>
